<?xml version="1.0" standalone="no"?>
<!DOCTYPE svg PUBLIC "-//W3C//DTD SVG 20010904//EN"
 "http://www.w3.org/TR/2001/REC-SVG-20010904/DTD/svg10.dtd">
<svg version="1.0" xmlns="http://www.w3.org/2000/svg"
 width="512.000000pt" height="512.000000pt" viewBox="0 0 512.000000 512.000000"
 preserveAspectRatio="xMidYMid meet">

<g transform="translate(0.000000,512.000000) scale(0.100000,-0.100000)"
fill="#000000" stroke="none">
<path d="M2445 4604 c-51 -9 -155 -43 -204 -67 -41 -21 -460 -261 -1039 -595
-238 -138 -263 -155 -332 -228 -71 -75 -121 -158 -157 -259 l-28 -80 -3 -785
c-3 -889 -5 -862 74 -1021 61 -121 162 -225 294 -301 52 -31 230 -133 395
-228 165 -95 413 -238 550 -317 319 -185 378 -206 555 -206 190 0 219 12 730
306 234 135 513 295 620 357 107 62 215 127 240 145 116 86 200 206 252 361
l23 69 0 805 0 805 -27 80 c-35 102 -88 192 -157 267 -79 86 2 36 -921 568
-453 260 -461 264 -555 297 -70 24 -237 38 -310 27z m299 -960 c9 -8 16 -22
16 -31 0 -8 -29 -60 -65 -115 l-65 -99 34 -112 c29 -95 32 -115 21 -132 -15
-25 -48 -31 -63 -12 -7 8 -27 63 -45 123 l-34 109 -69 38 c-150 84 -171 107
-123 141 25 17 30 15 130 -41 42 -24 79 -43 82 -43 3 0 31 39 63 88 71 109 85
119 118 86z m-391 -584 l27 -30 0 -481 0 -482 -36 -33 c-29 -28 -43 -34 -81
-34 -60 0 -108 45 -118 111 -3 24 -5 241 -3 481 l3 437 34 35 c52 54 122 52
174 -4z m605 16 l37 -34 3 -469 c3 -529 4 -520 -71 -557 -33 -16 -45 -17 -76
-7 -20 6 -48 22 -62 37 -24 25 -24 29 -27 225 l-3 199 -89 0 c-85 0 -91 1
-124 30 -40 36 -52 76 -36 125 19 57 53 74 156 77 l89 3 5 168 5 169 37 34
c53 48 103 48 156 0z m-497 -1459 c-13 -13 -26 -3 -16 12 3 6 11 8 17 5 6 -4
6 -10 -1 -17z m-768 -23 c-6 -35 -6 -35 28 -32 29 2 35 8 39 32 3 16 11 31 18
34 6 2 12 1 12 -2 0 -5 -15 -82 -26 -133 -8 -39 -27 -27 -21 12 6 34 5 35 -28
35 -30 0 -33 -3 -39 -35 -4 -19 -13 -35 -20 -35 -10 0 -10 16 3 80 9 49 20 80
27 80 9 0 11 -11 7 -36z m1155 1 c-4 -34 -3 -35 29 -35 28 0 34 4 41 32 10 38
38 54 29 17 -3 -13 -11 -50 -17 -81 -12 -61 -34 -81 -28 -25 3 29 0 32 -26 35
-31 4 -46 -10 -46 -45 0 -14 -6 -23 -16 -23 -10 0 -14 6 -10 18 3 9 10 45 17
80 12 65 34 87 27 27z m-857 -15 c44 -24 9 -110 -46 -110 -64 0 -44 105 23
119 2 1 12 -4 23 -9z m173 -45 c-4 -35 -3 -55 3 -55 17 0 34 26 40 64 9 57 27
44 19 -14 -4 -31 -3 -50 3 -50 14 0 37 38 45 73 4 15 11 27 17 27 15 0 4 -56
-16 -87 -14 -20 -22 -23 -78 -20 l-62 2 2 33 c2 47 12 82 23 82 6 0 8 -21 4
-55z m286 0 c-6 -26 -5 -44 2 -52 8 -10 5 -13 -12 -13 -21 0 -21 3 -15 53 8
59 14 72 26 60 4 -4 4 -26 -1 -48z m230 40 c16 -19 5 -34 -37 -51 -29 -13 -33
-17 -22 -30 7 -8 20 -12 30 -9 11 4 19 2 19 -5 0 -7 -14 -10 -37 -8 -33 3 -38
7 -41 30 -4 34 13 67 41 78 30 12 33 12 47 -5z m493 -69 c-5 -68 -9 -79 -28
-86 -25 -10 -65 -3 -65 11 0 5 15 8 33 7 29 -3 32 0 35 27 3 24 1 28 -9 18
-16 -16 -55 -17 -64 -2 -9 13 14 99 27 99 5 0 6 -22 2 -51 -6 -42 -4 -51 7
-47 15 5 33 35 49 82 16 44 19 28 13 -58z m227 69 c16 -19 5 -34 -36 -51 -24
-10 -32 -19 -27 -30 4 -11 13 -14 32 -9 19 5 23 4 15 -5 -6 -6 -24 -10 -40 -8
-25 2 -29 8 -32 35 -2 24 3 39 22 58 28 28 48 32 66 10z"/>
<path d="M1940 1551 c-23 -44 0 -92 27 -56 18 26 17 75 -2 75 -8 0 -19 -9 -25
-19z"/>
<path d="M2630 1555 c-10 -13 -9 -15 9 -15 12 0 21 6 21 15 0 8 -4 15 -9 15
-5 0 -14 -7 -21 -15z"/>
<path d="M3349 1554 c-12 -14 -11 -16 5 -13 11 2 21 10 24 17 5 17 -13 15 -29
-4z"/>
</g>
</svg>
